<svg xmlns="http://www.w3.org/2000/svg" xmlns:xlink="http://www.w3.org/1999/xlink" width="500" zoomAndPan="magnify" viewBox="0 0 375 374.999991" height="500" preserveAspectRatio="xMidYMid meet" version="1.0"><defs><clipPath id="c123373b67"><path d="M 32 59 L 209 59 L 209 321 L 32 321 Z M 32 59 " clip-rule="nonzero"/></clipPath><clipPath id="be0d29303b"><path d="M 81.65625 320.464844 L 32.671875 320.464844 L 32.671875 60.546875 C 34.953125 60.101562 37.082031 59.320312 39.207031 59.335938 C 70.277344 59.550781 101.421875 58.449219 132.371094 60.53125 C 165.398438 62.75 191.308594 78.523438 202.761719 111.078125 C 214.339844 143.953125 209.164062 174.703125 184.480469 200.472656 C 170.347656 215.234375 152.167969 222.445312 131.925781 223.703125 C 119.90625 224.4375 107.792969 223.839844 95.070312 223.839844 L 95.070312 178.882812 C 104.195312 178.882812 112.9375 179.082031 121.683594 178.851562 C 144.300781 178.253906 158.480469 164.734375 158.9375 143.527344 C 159.414062 121.949219 145.078125 106.789062 122.523438 105.839844 C 109.324219 105.273438 96.078125 105.734375 81.65625 105.734375 Z M 81.65625 320.464844 " clip-rule="nonzero"/></clipPath><clipPath id="c9d6076c7a"><path d="M 0.640625 0 L 177 0 L 177 261.640625 L 0.640625 261.640625 Z M 0.640625 0 " clip-rule="nonzero"/></clipPath><clipPath id="19dbb71068"><path d="M 49.65625 261.464844 L 0.671875 261.464844 L 0.671875 1.546875 C 2.953125 1.101562 5.082031 0.320312 7.207031 0.335938 C 38.277344 0.550781 69.421875 -0.550781 100.371094 1.53125 C 133.398438 3.75 159.308594 19.523438 170.761719 52.078125 C 182.339844 84.953125 177.164062 115.703125 152.480469 141.472656 C 138.347656 156.234375 120.167969 163.445312 99.925781 164.703125 C 87.90625 165.4375 75.792969 164.839844 63.070312 164.839844 L 63.070312 119.882812 C 72.195312 119.882812 80.9375 120.082031 89.683594 119.851562 C 112.300781 119.253906 126.480469 105.734375 126.9375 84.527344 C 127.414062 62.949219 113.078125 47.789062 90.523438 46.839844 C 77.324219 46.273438 64.078125 46.734375 49.65625 46.734375 Z M 49.65625 261.464844 " clip-rule="nonzero"/></clipPath><clipPath id="6b86d7adb7"><rect x="0" width="177" y="0" height="262"/></clipPath><clipPath id="63bcdb5582"><path d="M 176 54 L 298 54 L 298 168.824219 L 176 168.824219 Z M 176 54 " clip-rule="nonzero"/></clipPath><clipPath id="43ca0bf319"><path d="M 176.457031 57.820312 C 223.632812 48.496094 262.207031 58.984375 295.527344 88.675781 C 297.257812 90.222656 298.054688 94.910156 297.042969 97.113281 C 286.597656 119.882812 275.695312 142.4375 263.292969 168.46875 C 234.152344 131.351562 206.160156 95.6875 176.457031 57.820312 " clip-rule="nonzero"/></clipPath><clipPath id="e3e9e0d7a6"><path d="M 0.398438 0 L 122 0 L 122 114.480469 L 0.398438 114.480469 Z M 0.398438 0 " clip-rule="nonzero"/></clipPath><clipPath id="4cb1be7b2e"><path d="M 0.457031 3.820312 C 47.632812 -5.503906 86.207031 4.984375 119.527344 34.675781 C 121.257812 36.222656 122.054688 40.910156 121.042969 43.113281 C 110.597656 65.882812 99.695312 88.4375 87.292969 114.46875 C 58.152344 77.351562 30.160156 41.6875 0.457031 3.820312 " clip-rule="nonzero"/></clipPath><clipPath id="84e1759c9c"><rect x="0" width="122" y="0" height="115"/></clipPath><clipPath id="082f87ac65"><path d="M 212 207 L 339.226562 207 L 339.226562 297 L 212 297 Z M 212 207 " clip-rule="nonzero"/></clipPath><clipPath id="0d92d86426"><path d="M 212.714844 241.558594 C 255.652344 229.875 296.707031 218.695312 338.816406 207.242188 C 338.816406 210.703125 339.273438 213.167969 338.753906 215.402344 C 331.066406 248.019531 313.59375 274.035156 286.214844 293.484375 C 280.613281 297.464844 276.476562 298.089844 270.859375 293.101562 C 254.027344 278.140625 236.664062 263.777344 219.574219 249.121094 C 217.738281 247.542969 216.285156 245.523438 212.730469 241.574219 " clip-rule="nonzero"/></clipPath><clipPath id="f7e2bfd568"><path d="M 0.640625 0.121094 L 127.226562 0.121094 L 127.226562 90 L 0.640625 90 Z M 0.640625 0.121094 " clip-rule="nonzero"/></clipPath><clipPath id="13b22f5821"><path d="M 0.714844 34.558594 C 43.652344 22.875 84.707031 11.695312 126.816406 0.242188 C 126.816406 3.703125 127.273438 6.167969 126.753906 8.402344 C 119.066406 41.019531 101.59375 67.035156 74.214844 86.484375 C 68.613281 90.464844 64.476562 91.089844 58.859375 86.101562 C 42.027344 71.140625 24.664062 56.777344 7.574219 42.121094 C 5.738281 40.542969 4.285156 38.523438 0.730469 34.574219 " clip-rule="nonzero"/></clipPath><clipPath id="13d6acf8d7"><rect x="0" width="128" y="0" height="90"/></clipPath><clipPath id="febff0216c"><path d="M 162.34375 222 L 270 222 L 270 318 L 162.34375 318 Z M 162.34375 222 " clip-rule="nonzero"/></clipPath><clipPath id="47ec23855a"><path d="M 269.511719 302.640625 C 243.769531 316.464844 218.582031 319.683594 192.578125 315.746094 C 162.675781 311.230469 162.734375 310.753906 162.828125 281.1875 C 162.875 262.734375 162.949219 244.28125 163.074219 225.832031 C 163.074219 225.203125 163.652344 224.558594 164.664062 222.507812 C 203.222656 243.472656 233.632812 274.710938 269.511719 302.625 " clip-rule="nonzero"/></clipPath><clipPath id="915cafb17f"><path d="M 0.480469 0.480469 L 107.519531 0.480469 L 107.519531 96 L 0.480469 96 Z M 0.480469 0.480469 " clip-rule="nonzero"/></clipPath><clipPath id="e9f5d7a108"><path d="M 107.511719 80.640625 C 81.769531 94.464844 56.582031 97.683594 30.578125 93.746094 C 0.675781 89.230469 0.734375 88.753906 0.828125 59.1875 C 0.875 40.734375 0.949219 22.28125 1.074219 3.832031 C 1.074219 3.203125 1.652344 2.558594 2.664062 0.507812 C 41.222656 21.472656 71.632812 52.710938 107.511719 80.625 " clip-rule="nonzero"/></clipPath><clipPath id="a02ac0ad2b"><rect x="0" width="108" y="0" height="96"/></clipPath><clipPath id="d4f06d1403"><path d="M 87.636719 228.148438 L 153.554688 228.148438 L 153.554688 303.957031 L 87.636719 303.957031 Z M 87.636719 228.148438 " clip-rule="nonzero"/></clipPath><clipPath id="6459fb2736"><path d="M 153.457031 228.25 L 153.457031 303.144531 C 121.40625 288.566406 101.300781 265.277344 87.855469 235.339844 C 110.519531 232.890625 131.925781 230.578125 153.457031 228.234375 " clip-rule="nonzero"/></clipPath><clipPath id="f5091ff4b2"><path d="M 0.839844 0.148438 L 66.554688 0.148438 L 66.554688 75.359375 L 0.839844 75.359375 Z M 0.839844 0.148438 " clip-rule="nonzero"/></clipPath><clipPath id="fcf81acd52"><path d="M 66.457031 0.25 L 66.457031 75.144531 C 34.40625 60.566406 14.300781 37.277344 0.855469 7.339844 C 23.519531 4.890625 44.925781 2.578125 66.457031 0.234375 " clip-rule="nonzero"/></clipPath><clipPath id="f9ecbdfd30"><rect x="0" width="67" y="0" height="76"/></clipPath><clipPath id="51019ae013"><path d="M 255 98 L 342.523438 98 L 342.523438 219.359375 L 255 219.359375 Z M 255 98 " clip-rule="nonzero"/></clipPath><clipPath id="e0d6ab3723"><path d="M 255.332031 216.09375 C 271.515625 177.472656 287.703125 138.855469 304.773438 98.109375 C 323.519531 118.121094 333.59375 138.625 338.492188 161.824219 C 345.796875 196.414062 345.554688 196.769531 311.480469 205.648438 C 294.054688 210.195312 276.585938 214.578125 259.144531 219.046875 C 257.871094 218.066406 256.601562 217.085938 255.332031 216.09375 " clip-rule="nonzero"/></clipPath><clipPath id="1eca9a6753"><path d="M 0.121094 0 L 87.523438 0 L 87.523438 121.121094 L 0.121094 121.121094 Z M 0.121094 0 " clip-rule="nonzero"/></clipPath><clipPath id="aaa2c33f1c"><path d="M 0.332031 118.09375 C 16.515625 79.472656 32.703125 40.855469 49.773438 0.109375 C 68.519531 20.121094 78.59375 40.625 83.492188 63.824219 C 90.796875 98.414062 90.554688 98.769531 56.480469 107.648438 C 39.054688 112.195312 21.585938 116.578125 4.144531 121.046875 C 2.871094 120.066406 1.601562 119.085938 0.332031 118.09375 " clip-rule="nonzero"/></clipPath><clipPath id="43eb8b8ede"><rect x="0" width="88" y="0" height="122"/></clipPath></defs><g clip-path="url(#c123373b67)"><g clip-path="url(#be0d29303b)"><g transform="matrix(1, 0, 0, 1, 32, 59)"><g clip-path="url(#6b86d7adb7)"><g clip-path="url(#c9d6076c7a)"><g clip-path="url(#19dbb71068)"><rect x="-114.5" width="540" fill="#272324" height="539.999987" y="-141.499998" fill-opacity="1"/></g></g></g></g></g></g><g clip-path="url(#63bcdb5582)"><g clip-path="url(#43ca0bf319)"><g transform="matrix(1, 0, 0, 1, 176, 54)"><g clip-path="url(#84e1759c9c)"><g clip-path="url(#e3e9e0d7a6)"><g clip-path="url(#4cb1be7b2e)"><rect x="-258.5" width="540" fill="#c4c5c7" height="539.999987" y="-136.499998" fill-opacity="1"/></g></g></g></g></g></g><g clip-path="url(#082f87ac65)"><g clip-path="url(#0d92d86426)"><g transform="matrix(1, 0, 0, 1, 212, 207)"><g clip-path="url(#13d6acf8d7)"><g clip-path="url(#f7e2bfd568)"><g clip-path="url(#13b22f5821)"><rect x="-294.5" width="540" fill="#818385" height="539.999987" y="-289.499998" fill-opacity="1"/></g></g></g></g></g></g><g clip-path="url(#febff0216c)"><g clip-path="url(#47ec23855a)"><g transform="matrix(1, 0, 0, 1, 162, 222)"><g clip-path="url(#a02ac0ad2b)"><g clip-path="url(#915cafb17f)"><g clip-path="url(#e9f5d7a108)"><rect x="-244.5" width="540" fill="#626366" height="539.999987" y="-304.499998" fill-opacity="1"/></g></g></g></g></g></g><g clip-path="url(#d4f06d1403)"><g clip-path="url(#6459fb2736)"><g transform="matrix(1, 0, 0, 1, 87, 228)"><g clip-path="url(#f9ecbdfd30)"><g clip-path="url(#f5091ff4b2)"><g clip-path="url(#fcf81acd52)"><rect x="-169.5" width="540" fill="#58585a" height="539.999987" y="-310.499998" fill-opacity="1"/></g></g></g></g></g></g><g clip-path="url(#51019ae013)"><g clip-path="url(#e0d6ab3723)"><g transform="matrix(1, 0, 0, 1, 255, 98)"><g clip-path="url(#43eb8b8ede)"><g clip-path="url(#1eca9a6753)"><g clip-path="url(#aaa2c33f1c)"><rect x="-337.5" width="540" fill="#aeb0b3" height="539.999987" y="-180.499998" fill-opacity="1"/></g></g></g></g></g></g></svg>